INSTRUMENT PIANO
NOTE ON 440 0.4
NOTE ON 494 0.4
NOTE ON 554 0.4
NOTE ON 587 0.4
NOTE ON 622 0.4
NOTE ON 659 0.4
NOTE ON 698 0.4
NOTE ON 740 0.4
NOTE ON 784 0.4
NOTE ON 830 0.4
NOTE ON 880 0.4
NOTE ON 932 0.4
NOTE ON 988 0.4
NOTE ON 1046 0.4
NOTE OFF 440
NOTE OFF 494
NOTE OFF 554
NOTE OFF 587
NOTE OFF 622
NOTE OFF 659
NOTE OFF 698
NOTE OFF 740
NOTE OFF 784
NOTE OFF 830
NOTE OFF 880
NOTE OFF 932
NOTE OFF 988
NOTE OFF 1046

INSTRUMENT VIOLIN
NOTE ON 440 0.4
NOTE ON 494 0.4
NOTE ON 554 0.4
NOTE ON 587 0.4
NOTE ON 622 0.4
NOTE ON 659 0.4
NOTE ON 698 0.4
NOTE ON 740 0.4
NOTE ON 784 0.4
NOTE ON 830 0.4
NOTE ON 880 0.4
NOTE ON 932 0.4
NOTE ON 988 0.4
NOTE ON 1046 0.4
NOTE OFF 440
NOTE OFF 494
NOTE OFF 554
NOTE OFF 587
NOTE OFF 622
NOTE OFF 659
NOTE OFF 698
NOTE OFF 740
NOTE OFF 784
NOTE OFF 830
NOTE OFF 880
NOTE OFF 932
NOTE OFF 988
NOTE OFF 1046

INSTRUMENT TRUMPET
NOTE ON 440 0.4
NOTE ON 494 0.4
NOTE ON 554 0.4
NOTE ON 587 0.4
NOTE ON 622 0.4
NOTE ON 659 0.4
NOTE ON 698 0.4
NOTE ON 740 0.4
NOTE ON 784 0.4
NOTE ON 830 0.4
NOTE ON 880 0.4
NOTE ON 932 0.4
NOTE ON 988 0.4
NOTE ON 1046 0.4
NOTE OFF 440
NOTE OFF 494
NOTE OFF 554
NOTE OFF 587
NOTE OFF 622
NOTE OFF 659
NOTE OFF 698
NOTE OFF 740
NOTE OFF 784
NOTE OFF 830
NOTE OFF 880
NOTE OFF 932
NOTE OFF 988
NOTE OFF 1046
